<svg width="20" height="20" viewBox="0 0 20 20" fill="none" xmlns="http://www.w3.org/2000/svg"><mask id="path-1-inside-1_1897_284" fill="#9a82fb"><path fill-rule="evenodd" clip-rule="evenodd" d="M3 2H17C17.5523 2 18 2.44771 18 3V17C18 17.5523 17.5523 18 17 18H3C2.44772 18 2 17.5523 2 17V3C2 2.44772 2.44771 2 3 2ZM0 3C0 1.34315 1.34315 0 3 0H17C18.6569 0 20 1.34315 20 3V17C20 18.6569 18.6569 20 17 20H3C1.34315 20 0 18.6569 0 17V3ZM15.7365 6.6764C16.1101 6.26963 16.0832 5.63704 15.6764 5.26347C15.2696 4.8899 14.637 4.91682 14.2635 5.3236L8.47288 11.6289L5.63221 9.31102C5.2043 8.96186 4.57436 9.0257 4.2252 9.4536C3.87604 9.88151 3.93988 10.5115 4.36779 10.8606L7.93922 13.7748C8.34955 14.1096 8.94975 14.0665 9.30797 13.6764L15.7365 6.6764Z"></path></mask><path d="M15.6764 5.26347L14.3236 6.73653L14.3236 6.73653L15.6764 5.26347ZM15.7365 6.6764L14.2635 5.32359L14.2635 5.3236L15.7365 6.6764ZM14.2635 5.3236L12.7904 3.97079L12.7904 3.97079L14.2635 5.3236ZM8.47288 11.6289L7.20845 13.1785L8.67 14.3711L9.94594 12.9817L8.47288 11.6289ZM5.63221 9.31102L6.89663 7.76143L6.89663 7.76143L5.63221 9.31102ZM4.36779 10.8606L5.63221 9.31102H5.63221L4.36779 10.8606ZM7.93922 13.7748L9.20365 12.2252L7.93922 13.7748ZM9.30797 13.6764L10.781 15.0292L10.781 15.0292L9.30797 13.6764ZM17 0H3V4H17V0ZM20 3C20 1.34314 18.6569 0 17 0V4C16.4477 4 16 3.55229 16 3H20ZM20 17V3H16V17H20ZM17 20C18.6569 20 20 18.6569 20 17H16C16 16.4477 16.4477 16 17 16V20ZM3 20H17V16H3V20ZM0 17C0 18.6569 1.34314 20 3 20V16C3.55229 16 4 16.4477 4 17H0ZM0 3V17H4V3H0ZM3 0C1.34315 0 0 1.34315 0 3H4C4 3.55229 3.55228 4 3 4V0ZM3 -2C0.238577 -2 -2 0.238575 -2 3H2C2 2.44772 2.44771 2 3 2V-2ZM17 -2H3V2H17V-2ZM22 3C22 0.238577 19.7614 -2 17 -2V2C17.5523 2 18 2.44772 18 3H22ZM22 17V3H18V17H22ZM17 22C19.7614 22 22 19.7614 22 17H18C18 17.5523 17.5523 18 17 18V22ZM3 22H17V18H3V22ZM-2 17C-2 19.7614 0.238576 22 3 22V18C2.44772 18 2 17.5523 2 17H-2ZM-2 3V17H2V3H-2ZM14.3236 6.73653C13.9168 6.36296 13.8899 5.73037 14.2635 5.32359L17.2096 8.02921C18.3303 6.80889 18.2495 4.91111 17.0292 3.79041L14.3236 6.73653ZM15.7365 6.67641C15.363 7.08318 14.7304 7.1101 14.3236 6.73653L17.0292 3.79041C15.8089 2.6697 13.9111 2.75046 12.7904 3.97079L15.7365 6.67641ZM9.94594 12.9817L15.7365 6.6764L12.7904 3.97079L6.99981 10.2761L9.94594 12.9817ZM4.36779 10.8606L7.20845 13.1785L9.7373 10.0793L6.89663 7.76143L4.36779 10.8606ZM5.7748 10.718C5.42564 11.1459 4.7957 11.2098 4.36779 10.8606L6.89663 7.76143C5.61291 6.71395 3.72309 6.90546 2.67561 8.18918L5.7748 10.718ZM5.63221 9.31102C6.06012 9.66018 6.12396 10.2901 5.7748 10.718L2.67561 8.18918C1.62813 9.47291 1.81964 11.3627 3.10337 12.4102L5.63221 9.31102ZM9.20365 12.2252L5.63221 9.31102L3.10337 12.4102L6.6748 15.3244L9.20365 12.2252ZM7.83491 12.3236C8.19312 11.9335 8.79332 11.8904 9.20365 12.2252L6.6748 15.3244C7.90577 16.3288 9.70638 16.1994 10.781 15.0292L7.83491 12.3236ZM14.2635 5.3236L7.83491 12.3236L10.781 15.0292L17.2096 8.02921L14.2635 5.3236Z" fill="#9a82fb" mask="url(#path-1-inside-1_1897_284)"></path></svg>